# xmcd
#
# Track frame offsets: 
#        150
#        25760
#        49617
#        82977
#        96012
#        108290
#        140797
#        156360
#        172867
#
# Disc length: 2530 seconds
#
# Revision: 2
# Processed by: cddbd v1.5.2PL0 Copyright (c) Steve Scherf et al.
# Submitted via: ExactAudioCopyFreeDBPlugin 1.0
#
DISCID=6609e009
DTITLE=William DeVaughn - Be Thankful For What You Got
DYEAR=1993
DGENRE=Soul
TTITLE0=Give the Little Man a Great Big Hand
TTITLE1=We Are His Children
TTITLE2=Blood is Thicker than Water
TTITLE3=Kiss and Make Up
TTITLE4=You Gave Me a Brand New Start
TTITLE5=Be Thankful for What You've Got
TTITLE6=Sing a Love Song
TTITLE7=You Can Do It
TTITLE8=Something's Being Done
EXTD=
EXTT0=
EXTT1=
EXTT2=
EXTT3=
EXTT4=
EXTT5=
EXTT6=
EXTT7=
EXTT8=
PLAYORDER=
